<svg xmlns="http://www.w3.org/2000/svg" width="30" height="30" viewBox="0 0 30 30"><g transform="translate(-374 -308)"><circle cx="15" cy="15" r="15" transform="translate(374 308)" fill="#0b1828"/><path d="M10.19,19.926a1.193,1.193,0,0,0,.837-.352,1.149,1.149,0,0,0,0-1.668l-8.1-7.929,8.1-7.959a1.149,1.149,0,0,0,0-1.668,1.208,1.208,0,0,0-1.708,0L.359,9.129A1.139,1.139,0,0,0,0,9.949a1.052,1.052,0,0,0,.359.82l8.966,8.777A1.223,1.223,0,0,0,10.19,19.926Z" transform="translate(382.307 313.038)" fill="#fff"/></g></svg>