<svg xmlns="http://www.w3.org/2000/svg" width="30" height="30" viewBox="0 0 30 30">
  <path d="M23.717,10.212A29.533,29.533,0,0,0,9.327,7.674c.258-1.757.893-2.982,1.935-3.24,1.435-.356,3,.62,4.492,2.4.978.131,2.137.362,2.943.554C15.977,2.094,12.328-.871,9.552.223,7.441,1.056,6.361,4.06,6.491,8.1A11.482,11.482,0,0,0,.226,11.321c-.07.083-.227.293-.171.393C.1,11.79.238,11.7.3,11.662A13.945,13.945,0,0,1,6.581,9.5a32.088,32.088,0,0,0,5.068,14.15c-1.6.649-2.945.692-3.682-.112-1.015-1.107-.981-3-.239-5.22-.379-.941-.766-2.094-1.008-2.912-3.074,5.083-3.733,9.831-1.43,11.769,1.754,1.474,4.809.938,8.128-1.195a11.585,11.585,0,0,0,5.835,4c.1.02.359.056.415-.044.043-.076-.1-.159-.164-.192A14.412,14.412,0,0,1,14.549,25.2a31.185,31.185,0,0,0,9.322-11.612c1.345,1.11,2.05,2.29,1.747,3.352C25.2,18.4,23.6,19.314,21.365,19.76c-.6.808-1.373,1.731-1.936,2.359,5.792.207,10.1-1.575,10.572-4.606.359-2.307-1.619-4.775-5.065-6.678a12.381,12.381,0,0,0,.432-7.221c-.036-.1-.132-.349-.244-.349-.085,0-.084.168-.079.243A15.147,15.147,0,0,1,23.717,10.212ZM13.052,22.963A26.634,26.634,0,0,1,9.2,9.274h0a24.505,24.505,0,0,1,13.393,3.395h0a25.647,25.647,0,0,1-9.542,10.293Z" transform="translate(-0.043 0.003)" fill="#148eff"/>
</svg>
